# xmcd
#
# Track frame offsets: 
#        150
#        11701
#        24110
#        37499
#        45507
#        55166
#        64968
#        77808
#        89850
#        112684
#        127667
#        146191
#        156753
#        175441
#        182832
#
# Disc length: 2711 seconds
#
# Revision: 0
# Processed by: cddbd v1.5.2PL0 Copyright (c) Steve Scherf et al.
# Submitted via: ExactAudioCopy v0.95b3
#
DISCID=cc0a950f
DTITLE=DJ Komori - R&B Mix vol. 13 - Lots of Lovin - Disc A
DYEAR=2008
DGENRE=R&B
TTITLE0=Janet Jackson - Got' Til It's Gone (Mellow Mix)
TTITLE1=Chante Moore - Inside My Love
TTITLE2=Jarvis - Radio
TTITLE3=Notorious B.I.G. feat. R Kelly -  Fuck You Tonight
TTITLE4=Notorious B.I.G. - One More Chance (Stay With Me)
TTITLE5=Pete Rock and C.L. Smooth - Lots of Lovin'
TTITLE6=Destiny's Child - Girl
TTITLE7=Nu-Vizion - What You Won't Do For Love
TTITLE8=S. WonderFrom The Bottom of My Heart
TTITLE9=Mariah Carey - Circles
TTITLE10=Mariah Carey - And You Don't Remember
TTITLE11=Whitney Houston - I Have Nothing
TTITLE12=Boyz 2 Men - End Of The Load
TTITLE13=Boyz 2 Men - In The Still Of The Night
TTITLE14=G. Michael - Kissing A Fool
EXTD=
EXTT0=
EXTT1=
EXTT2=
EXTT3=
EXTT4=
EXTT5=
EXTT6=
EXTT7=
EXTT8=
EXTT9=
EXTT10=
EXTT11=
EXTT12=
EXTT13=
EXTT14=
PLAYORDER=
